<svg xmlns="http://www.w3.org/2000/svg" width="83.252" height="63.968" fill-rule="evenodd" clip-rule="evenodd" image-rendering="optimizeQuality" shape-rendering="geometricPrecision" text-rendering="geometricPrecision" viewBox="0 0 2191.83 1684.13" id="mail">
  <path fill-rule="nonzero" d="M396.25 -0.01l1399.33 0c109.04,0 208.13,44.57 279.9,116.34 71.78,71.77 116.36,170.87 116.36,279.92l0 891.61c0,109.04 -44.58,208.13 -116.36,279.91 -71.77,71.77 -170.86,116.35 -279.9,116.35l-1399.33 0c-109.04,0 -208.14,-44.58 -279.92,-116.35 -71.77,-71.78 -116.34,-170.87 -116.34,-279.91l0 -891.61c0,-109.03 44.57,-208.15 116.34,-279.92 71.78,-71.77 170.89,-116.34 279.92,-116.34zm-204.2 256.66l903.86 500.76 903.85 -500.75c-8.7,-12.65 -18.53,-24.46 -29.33,-35.27 -44.91,-44.9 -106.81,-72.78 -174.85,-72.78l-1399.33 0c-68.04,0 -129.96,27.88 -174.86,72.78 -10.82,10.82 -20.65,22.63 -29.33,35.26zm1851.18 145.23l-910.56 504.46c-21.75,12.41 -49.27,13.49 -72.74,0.43l-911.33 -504.89 0 885.99c0,68.04 27.88,129.94 72.79,174.85 44.9,44.91 106.82,72.8 174.86,72.8l1399.33 0c68.03,0 129.94,-27.89 174.85,-72.8 44.91,-44.91 72.8,-106.82 72.8,-174.85l0 -885.99z"></path>
</svg>
