<svg xmlns="http://www.w3.org/2000/svg" fill-rule="evenodd" stroke-linejoin="round" stroke-miterlimit="2" clip-rule="evenodd" viewBox="0 0 24 24" id="youtube">
  <g transform="translate(-40 -40)">
    <rect width="24" height="24" x="40" y="40" fill="none"></rect>
    <path fill="#2c2c2c" d="M234.372,258.635C234.019,258.309 233.751,257.826 233.578,257.345C233.35,256.71 233.279,256.102 233.279,256.102C233.279,256.097 233.278,256.092 233.278,256.087C233.278,256.087 233.107,254.375 233.107,252.749C233.107,252.749 233.107,251.251 233.107,251.251C233.107,249.537 233.278,247.908 233.278,247.908C233.28,247.888 233.283,247.867 233.287,247.846C233.287,247.846 233.641,246.096 234.37,245.368C235.299,244.438 236.312,244.392 236.828,244.289C236.869,244.281 236.91,244.275 236.952,244.273C239.805,244.105 244,244.105 244,244.105C244,244.105 248.169,244.105 251.021,244.271C251.58,244.272 252.651,244.304 253.63,245.366C253.982,245.693 254.249,246.175 254.422,246.655C254.65,247.29 254.721,247.898 254.721,247.898C254.721,247.901 254.721,247.905 254.722,247.908C254.722,247.908 254.893,249.538 254.893,251.167L254.893,252.666C254.893,254.38 254.722,256.008 254.722,256.008C254.72,256.029 254.717,256.05 254.713,256.07C254.713,256.07 254.359,257.821 253.63,258.549C252.701,259.478 251.688,259.525 251.172,259.628L251.074,259.642C248.211,259.895 244,259.895 244,259.895C244,259.895 238.681,259.893 237.077,259.724C237.049,259.721 237.022,259.717 236.995,259.711C236.484,259.609 235.298,259.632 234.372,258.635ZM252.933,248.105C252.928,248.068 252.876,247.675 252.728,247.264C252.652,247.051 252.56,246.821 252.401,246.681C252.374,246.658 252.349,246.633 252.325,246.606C251.829,246.055 251.271,246.071 250.995,246.071L250.942,246.07C248.132,245.904 244,245.905 244,245.905C244,245.905 239.902,245.904 237.093,246.068C236.754,246.114 236.164,246.119 235.642,246.64C235.491,246.792 235.391,247.041 235.305,247.272C235.161,247.66 235.084,248.033 235.065,248.133C235.041,248.373 234.907,249.778 234.907,251.251L234.907,252.749C234.907,254.288 235.069,255.908 235.067,255.892C235.067,255.892 235.117,256.304 235.272,256.736C235.348,256.949 235.44,257.179 235.599,257.319C235.626,257.342 235.651,257.367 235.675,257.394C235.959,257.71 236.307,257.805 236.591,257.851C236.869,257.897 237.113,257.909 237.286,257.936C238.871,258.098 244,258.095 244,258.095C244,258.095 248.09,258.096 250.889,257.851C251.226,257.803 251.827,257.807 252.358,257.276C252.509,257.124 252.609,256.876 252.695,256.644C252.839,256.257 252.916,255.884 252.935,255.784C252.959,255.544 253.093,254.138 253.093,252.666C253.093,252.666 253.093,251.167 253.093,251.167C253.093,249.697 252.945,248.227 252.933,248.105ZM247.926,252.598C248.232,252.445 248.425,252.133 248.425,251.792C248.425,251.45 248.232,251.138 247.926,250.986L242.319,248.196C242.04,248.057 241.709,248.073 241.444,248.237C241.179,248.401 241.018,248.69 241.018,249.002L241.018,254.582C241.018,254.893 241.179,255.183 241.444,255.347C241.709,255.511 242.04,255.526 242.319,255.387L247.926,252.598ZM242.818,253.129L245.505,251.792L242.818,250.455L242.818,253.129Z" transform="translate(-192 -200)"></path>
  </g>
</svg>
