<svg width="27" height="27" viewBox="0 0 27 27" fill="none" xmlns="http://www.w3.org/2000/svg">
<path d="M5.7541 12.8333V17.1667C5.7541 17.903 5.13757 18.5 4.37705 18.5C3.61653 18.5 3 17.903 3 17.1667V12.8333C3 12.097 3.61653 11.5 4.37705 11.5C5.13757 11.5 5.7541 12.097 5.7541 12.8333Z" fill="#868686"/>
<path d="M24 13V17.3333C24 18.0697 23.3835 18.6667 22.623 18.6667C21.8624 18.6667 21.2459 18.0697 21.2459 17.3333V13C21.2459 12.2636 21.8624 11.6667 22.623 11.6667C23.3835 11.6667 24 12.2636 24 13Z" fill="#868686"/>
<path fill-rule="evenodd" clip-rule="evenodd" d="M20.2131 11.5V17.6667C20.2131 19.5076 18.6718 21 16.7705 21H10.2295C8.3282 21 6.78689 19.5076 6.78689 17.6667V11.5C6.78689 7.91015 9.79245 5 13.5 5C17.2076 5 20.2131 7.91015 20.2131 11.5ZM14.0164 7H12.9836C10.702 7 8.85246 8.79086 8.85246 11V12.3333C8.85246 13.2538 9.62312 14 10.5738 14H16.4262C17.3769 14 18.1475 13.2538 18.1475 12.3333V11C18.1475 8.79086 16.298 7 14.0164 7Z" fill="#868686"/>
<path d="M16.7705 11C16.7705 11.5523 16.3852 12 15.9098 12C15.4345 12 15.0492 11.5523 15.0492 11C15.0492 10.4477 15.4345 10 15.9098 10C16.3852 10 16.7705 10.4477 16.7705 11Z" fill="#868686"/>
<path d="M11.9508 11C11.9508 11.5523 11.5655 12 11.0902 12C10.6148 12 10.2295 11.5523 10.2295 11C10.2295 10.4477 10.6148 10 11.0902 10C11.5655 10 11.9508 10.4477 11.9508 11Z" fill="#868686"/>
</svg>
